<?xml version="1.0" standalone="no"?>
<!DOCTYPE svg PUBLIC "-//W3C//DTD SVG 20010904//EN"
 "http://www.w3.org/TR/2001/REC-SVG-20010904/DTD/svg10.dtd">
<svg version="1.0" xmlns="http://www.w3.org/2000/svg"
 width="1024.000000pt" height="1024.000000pt" viewBox="0 0 1024.000000 1024.000000"
 preserveAspectRatio="xMidYMid meet">
<metadata>
Created by potrace 1.14, written by Peter Selinger 2001-2017
</metadata>
<g transform="translate(0.000000,1024.000000) scale(0.100000,-0.100000)"
fill="#000000" stroke="none">
<path d="M1444 9585 c-38 -7 -97 -20 -130 -30 -68 -19 -224 -93 -224 -106 0
-5 -6 -9 -14 -9 -8 0 -21 -6 -28 -13 -7 -6 -38 -32 -68 -57 -30 -25 -66 -58
-79 -74 -14 -15 -30 -33 -36 -40 -6 -6 -32 -41 -57 -77 -75 -105 -133 -251
-156 -389 -4 -25 -7 -1683 -7 -3685 l0 -3640 22 -88 c39 -150 110 -291 204
-402 23 -27 35 -39 112 -108 93 -84 242 -160 390 -200 l82 -22 3645 0 c2005 0
3665 3 3690 7 210 33 431 155 573 316 105 121 190 296 224 463 4 19 8 1668 9
3664 2 3085 0 3642 -12 3710 -15 86 -62 222 -102 295 -30 56 -118 174 -163
219 -110 110 -282 210 -426 246 -32 8 -71 18 -88 22 -16 4 -1663 8 -3660 9
-2915 2 -3644 0 -3701 -11z m2152 -1916 c133 -34 222 -136 240 -274 1 -11 3
-383 3 -827 l1 -808 1280 0 1280 0 1 815 c1 448 2 818 3 823 1 4 5 24 9 45 12
58 58 128 110 168 87 65 107 68 511 68 431 1 457 -4 549 -93 46 -45 68 -83 86
-151 8 -28 11 -750 11 -2316 0 -2048 -2 -2281 -16 -2329 -24 -80 -56 -126
-119 -169 -83 -58 -103 -60 -498 -60 -240 0 -377 3 -407 11 -111 28 -206 123
-227 226 -4 20 -8 40 -9 45 -1 4 -2 374 -3 822 l-1 815 -1280 0 -1280 0 -2
-817 c0 -450 -2 -822 -2 -828 -17 -123 -114 -232 -236 -263 -60 -15 -725 -15
-795 0 -104 22 -201 116 -233 223 -9 30 -12 603 -12 2321 0 2513 -4 2335 61
2430 33 48 117 107 174 121 54 14 748 16 801 2z"/>
</g>
</svg>
